<svg xmlns="http://www.w3.org/2000/svg" viewBox="0 0 512 448">
<!--! Font Awesome Free 6.4.2 by @fontawesome - https://fontawesome.com License - https://fontawesome.com/license/free (Icons: CC BY 4.0, Fonts: SIL OFL 1.1, Code: MIT License) Copyright 2023 Fonticons, Inc. -->
  <path
     fill="#ffffff"
     d="m 511.99999,80 c 0,-44.199999 -35.8,-80 -79.99999,-80 H 32 C 14.3,0 0,14.300001 0,32.000001 V 368 c 0,44.2 35.8,80 80.000004,80 H 479.99999 c 17.7,0 32,-14.3 32,-32 z"/>
  <path
     d="M 64,32 C 64,14.3 49.7,0 32,0 14.3,0 0,14.3 0,32 v 336 c 0,44.2 35.8,80 80,80 h 400 c 17.7,0 32,-14.3 32,-32 0,-17.7 -14.3,-32 -32,-32 H 80 c -8.8,0 -16,-7.2 -16,-16 z m 406.6,86.6 c 12.5,-12.5 12.5,-32.8 0,-45.3 -12.5,-12.499996 -32.8,-12.499996 -45.3,0 L 320,178.7 262.6,121.3 c -12.5,-12.5 -32.8,-12.5 -45.3,0 l -112,112 c -12.5,12.5 -12.5,32.8 0,45.3 12.5,12.5 32.8,12.5 45.3,0 l 89.4,-89.3 57.4,57.4 c 12.5,12.5 32.8,12.5 45.3,0 l 128,-128 z"
     fill="#11191f"/>
</svg>
